<?xml version="1.0" encoding="utf-8"?>
<!-- Generator: Adobe Illustrator 16.0.4, SVG Export Plug-In . SVG Version: 6.00 Build 0)  -->
<!DOCTYPE svg PUBLIC "-//W3C//DTD SVG 1.1//EN" "http://www.w3.org/Graphics/SVG/1.1/DTD/svg11.dtd">
<svg version="1.1" id="Layer_1" xmlns="http://www.w3.org/2000/svg" xmlns:xlink="http://www.w3.org/1999/xlink" x="0px" y="0px"
	 width="188.729px" height="224.856px" viewBox="0 0 188.729 224.856" enable-background="new 0 0 188.729 224.856"
	 xml:space="preserve">
<g>
	<defs>
		<rect id="SVGID_1_" x="2.126" y="2.57" width="183.607" height="219.913"/>
	</defs>
	<clipPath id="SVGID_2_">
		<use xlink:href="#SVGID_1_"  overflow="visible"/>
	</clipPath>
	<path clip-path="url(#SVGID_2_)" fill="#FFFFFF" d="M97.742,113.916c8.007-3.104,22.99-5.308,34.377-6.116v3.736
		c-12.14,0.879-27.614,3.325-34.332,6.402l-0.045-0.101V113.916z M97.742,120.537c8.007-3.103,22.99-5.309,34.377-6.116v3.735
		c-12.14,0.879-27.614,3.326-34.332,6.403l-0.045-0.102V120.537z M97.742,133.779c7.594-2.957,20.243-4.668,25.925-5.322v3.754
		c-11.519,1.351-21.16,3.427-25.881,5.59l-0.044-0.098V133.779z M97.742,107.295c8.007-3.104,22.99-5.31,34.377-6.116v3.735
		c-12.14,0.88-27.614,3.324-34.332,6.403l-0.045-0.102V107.295z M97.742,127.159c8.007-3.104,22.99-5.311,34.377-6.116v3.735
		c-12.14,0.879-27.614,3.325-34.332,6.401l-0.045-0.102V127.159z M97.742,80.81c8.007-3.104,22.99-5.311,34.377-6.116v3.736
		c-12.14,0.879-27.614,3.324-34.332,6.401l-0.045-0.101V80.81z M97.742,100.673c8.007-3.104,22.99-5.31,34.377-6.115v3.733
		c-12.14,0.881-27.614,3.328-34.332,6.404l-0.045-0.102V100.673z M97.742,87.431c8.007-3.103,22.99-5.31,34.377-6.114v3.733
		c-12.14,0.88-27.614,3.324-34.332,6.401l-0.045-0.099V87.431z M97.742,94.051c8.007-3.103,22.99-5.308,34.377-6.113v3.733
		c-12.14,0.881-27.614,3.327-34.332,6.404l-0.045-0.104V94.051z M150.087,152.344H92.301c1.304-3.506,11.043-6.981,25.066-6.981
		c9.842,0,19.723,1.689,27.831,4.758l2.523,0.954V81.55h2.365V152.344z M53.831,60.293c5.014,3.083,10.915,5.565,16.655,7.979
		c8.733,3.676,17.013,7.157,17.994,11.36c-0.001,0.01-0.005,0.021-0.005,0.031c-0.008,0.058-0.019,0.116-0.025,0.174
		c-0.021,0.207-0.032,0.416-0.032,0.626v65.995c-3.28-2.903-8.475-5.38-14.142-8.075c-6.891-3.277-14.672-6.976-20.445-12.045
		V60.293z M137.964,137.665c-12.304,0.185-36.546,2.17-45.816,9.167V80.463c0-3.117,5.886-6.306,15.744-8.535
		c8.453-1.908,19.567-3.09,30.072-3.218V137.665z M141.691,141.377V76.25c0.78,0.241,1.552,0.486,2.303,0.753v68.736
		c-5.669-1.882-12.021-3.145-18.541-3.727c4.752-0.413,9.642-0.635,14.373-0.635H141.691z M147.722,78.055v-3.644l-1.201-0.456
		c-1.55-0.585-3.174-1.102-4.829-1.588v-7.394h-1.865c-12.349,0-41.706,2.074-49.484,10.827
		c-3.146-4.198-10.427-7.262-18.535-10.671c-6.631-2.792-13.488-5.676-18.688-9.396L50.419,53.8v24.255H28.453v77.785h125.13V78.055
		H147.722z"/>
	<path clip-path="url(#SVGID_2_)" fill="#FFFFFF" d="M176.302,142.34c0,0-0.273,0.937-0.87,2.664
		c-0.611,1.729-1.529,4.261-2.995,7.373c-1.464,3.108-3.395,6.845-6.093,10.851c-2.646,4.009-6.044,8.426-10.194,12.612
		c-4.249,4.352-9.19,8.592-15.045,12.324c-5.813,3.752-12.386,7.125-19.593,9.565c-7.197,2.426-14.958,4.136-22.955,4.661
		c-0.997,0.107-2.001,0.094-3.004,0.14l-1.51,0.049l-0.754,0.021l-0.378,0.014h-0.297l-0.18-0.003l-2.889-0.055l-1.447-0.026
		l-1.548-0.102l-3.109-0.216c-1.026-0.092-2.024-0.232-3.038-0.349c-2.028-0.2-4.029-0.599-6.039-0.935
		c-7.997-1.596-15.78-4.265-22.954-7.838c-3.566-1.825-7.039-3.776-10.247-6.036c-1.651-1.056-3.164-2.295-4.73-3.423
		c-1.492-1.226-3.014-2.395-4.421-3.672c-5.722-5.007-10.55-10.594-14.481-16.289c-3.957-5.688-6.956-11.528-9.189-17.091
		c-2.27-5.553-3.705-10.86-4.645-15.595c-0.893-4.75-1.318-8.927-1.437-12.364c-0.134-1.712-0.062-3.253-0.062-4.582
		c-0.011-1.329,0.07-2.459,0.128-3.374c0.125-1.823,0.192-2.795,0.192-2.795s0.114,0.966,0.333,2.78
		c0.165,1.809,0.604,4.448,1.215,7.757c0.604,3.316,1.658,7.267,3.019,11.702c1.467,4.41,3.446,9.252,6.029,14.28
		c2.618,5.015,5.927,10.167,9.897,15.212c4.007,5.023,8.83,9.79,14.195,14.205c5.371,4.431,11.571,8.122,18.086,11.308
		c6.582,3.058,13.606,5.448,20.84,6.849c1.812,0.324,3.614,0.716,5.446,0.919c0.91,0.116,1.831,0.26,2.73,0.354l2.678,0.224
		l1.339,0.115l1.447,0.045l2.888,0.093l2.64-0.039c0.911-0.028,1.825,0,2.729-0.087c7.248-0.445,14.377-1.506,21.04-3.508
		c6.644-2.032,12.904-4.626,18.523-7.739c5.6-3.114,10.657-6.673,14.921-10.256c4.39-3.729,8.013-7.406,11.052-10.951
		c3.007-3.542,5.433-6.829,7.292-9.64c1.837-2.822,3.228-5.105,4.095-6.699C175.832,143.194,176.302,142.34,176.302,142.34"/>
	<path clip-path="url(#SVGID_2_)" fill="#FFFFFF" d="M8.905,81.525c0,0,0.29-0.917,0.939-2.608c0.661-1.685,1.631-4.17,3.171-7.201
		c1.538-3.028,3.548-6.669,6.319-10.561c0.689-0.974,1.417-1.971,2.189-2.978l0.588-0.761l0.641-0.787
		c0.409-0.493,0.823-0.991,1.244-1.497c0.421-0.503,0.847-1.013,1.279-1.53c0.454-0.509,0.957-1.021,1.445-1.541
		c0.989-1.03,1.981-2.135,3.069-3.127c4.239-4.136,9.273-8.236,15.126-11.795c5.828-3.581,12.4-6.771,19.581-9.016
		c7.157-2.261,14.858-3.865,22.777-4.178l2.974-0.099l0.746-0.025l0.185-0.006l0.296-0.001l0.355,0.006l1.425,0.026l2.861,0.056
		l3.067,0.207c2.074,0.101,4.023,0.415,6.035,0.639c1.987,0.304,3.979,0.627,5.953,1.036c7.865,1.744,15.562,4.38,22.578,8.083
		c7.067,3.598,13.454,8.171,19.038,13.191c5.621,4.991,10.351,10.556,14.175,16.233c3.876,5.647,6.806,11.439,8.983,16.953
		c2.22,5.502,3.606,10.758,4.525,15.44c0.878,4.697,1.266,8.832,1.388,12.231c0.131,1.69,0.05,3.215,0.055,4.528
		c0.009,1.315-0.076,2.433-0.133,3.337c-0.127,1.803-0.193,2.765-0.193,2.765s-0.116-0.956-0.333-2.748
		c-0.163-1.789-0.605-4.399-1.201-7.672c-0.609-3.277-1.626-7.189-2.971-11.575c-1.45-4.362-3.382-9.156-5.918-14.14
		c-2.568-4.971-5.814-10.081-9.713-15.092c-3.904-5.009-8.644-9.76-13.919-14.159c-2.631-2.215-5.492-4.227-8.443-6.157
		c-1.519-0.9-2.991-1.89-4.578-2.706l-2.336-1.306l-2.407-1.198c-6.438-3.185-13.39-5.532-20.504-7.073
		c-1.777-0.393-3.574-0.707-5.368-1.012c-1.795-0.218-3.628-0.544-5.373-0.644l-2.643-0.227l-2.852-0.095l-1.424-0.047l-0.355-0.012
		c0.021,0-0.173-0.003,0.023,0l-0.084,0.002l-0.169,0.003l-0.677,0.016l-2.7,0.053c-1.8,0.008-3.579,0.244-5.358,0.33
		c-1.772,0.161-3.534,0.379-5.285,0.592c-3.482,0.554-6.916,1.213-10.226,2.143c-6.613,1.85-12.862,4.271-18.487,7.222
		c-5.608,2.97-10.663,6.311-15.034,9.806c-1.131,0.844-2.112,1.754-3.123,2.616c-1.006,0.837-1.975,1.762-2.935,2.675
		c-0.477,0.45-0.948,0.896-1.415,1.333l-0.348,0.328c-0.043,0.032-0.201,0.198-0.294,0.29l-0.647,0.652
		c-0.854,0.868-1.664,1.732-2.438,2.583c-3.069,3.419-5.562,6.596-7.487,9.316c-1.903,2.734-3.336,4.953-4.252,6.498
		C9.396,80.696,8.905,81.525,8.905,81.525"/>
	<polygon clip-path="url(#SVGID_2_)" fill="#FFFFFF" points="49.323,10.954 54.741,22.674 52.533,23.696 50.07,18.367 
		45.038,20.693 47.503,26.022 45.311,27.036 39.893,15.313 42.085,14.298 44.133,18.733 49.165,16.408 47.115,11.974 	"/>
	<path clip-path="url(#SVGID_2_)" fill="#FFFFFF" d="M54.744,9.184l0.747,2.081l-2.048,0.733l-0.746-2.081L54.744,9.184z
		 M55.971,12.608l3.082,8.605l-2.049,0.732l-3.081-8.604L55.971,12.608z"/>
	<path clip-path="url(#SVGID_2_)" fill="#FFFFFF" d="M66.687,9.433l1.982,7.229c0.462,1.749,0.655,2.453,0.312,3.345
		c-0.315,0.786-1.219,1.774-3.3,2.346c-3.136,0.86-4.127-0.327-4.813-1.655l2.326-0.638c0.3,0.468,0.829,0.947,2.1,0.599
		c1.073-0.295,1.435-0.849,1.551-1.183c0.197-0.529,0.057-1.039-0.239-2.115c-0.341,0.548-1.113,1.33-2.382,1.678
		c-2.08,0.571-4.213-0.361-4.982-3.164c-0.898-3.277,1.15-4.998,2.772-5.442c1.585-0.436,2.493,0.246,2.827,0.494l-0.251-0.916
		L66.687,9.433z M62.9,12.215c-1.074,0.297-1.969,1.318-1.506,3.011c0.422,1.533,1.573,2.069,2.826,1.727
		c1.128-0.31,1.98-1.207,1.553-2.833C65.399,12.687,64.328,11.824,62.9,12.215"/>
	<path clip-path="url(#SVGID_2_)" fill="#FFFFFF" d="M71.106,4.728l0.759,4.639c0.573-0.798,1.431-1.457,2.673-1.66
		c1.12-0.185,2.059,0.106,2.633,0.569c0.869,0.672,1.038,1.589,1.206,2.618l0.913,5.577l-2.129,0.349l-0.812-4.964
		c-0.17-0.806-0.201-1.004-0.354-1.257c-0.102-0.17-0.541-0.932-1.732-0.737c-1.391,0.229-1.856,1.453-1.915,2
		c-0.025,0.301-0.002,0.445,0.164,1.455l0.68,4.152l-2.166,0.353L68.94,5.083L71.106,4.728z"/>
	<path clip-path="url(#SVGID_2_)" fill="#FFFFFF" d="M87.222,12.072c0.319,0.472,1.312,1.937,4.036,1.891
		c0.457-0.008,0.931-0.052,1.385-0.243c0.927-0.399,1.079-1.059,1.071-1.498c-0.013-0.823-0.585-1.106-0.989-1.263
		c-0.294-0.105-0.33-0.123-1.506-0.378l-1.559-0.304c-0.826-0.188-1.229-0.271-1.634-0.43c-0.59-0.229-2.192-0.988-2.228-3.126
		c-0.04-2.45,1.999-4.055,5.033-4.106c2.778-0.045,4.3,1.301,5.233,2.529l-1.948,1.512c-0.45-0.633-1.312-1.897-3.376-1.863
		c-1.3,0.021-2.423,0.625-2.406,1.611c0.018,1.098,1.228,1.297,2.4,1.497l1.341,0.27c1.741,0.337,4.202,1.011,4.249,3.771
		c0.049,2.96-2.674,4.194-5.415,4.238c-0.713,0.012-1.519-0.047-2.308-0.254c-0.863-0.241-2.391-0.837-3.387-2.393L87.222,12.072z"
		/>
	<path clip-path="url(#SVGID_2_)" fill="#FFFFFF" d="M104.38,10.756c-0.102-0.617-0.641-1.628-1.895-1.759
		c-1.255-0.129-2.359,0.767-2.549,2.585c-0.169,1.637,0.563,2.926,1.998,3.076c1.383,0.143,2.021-0.857,2.367-1.558l1.771,1.177
		c-0.91,1.891-2.802,2.577-4.384,2.414c-2.528-0.264-4.309-2.414-4.012-5.287c0.29-2.783,2.5-4.612,5.083-4.346
		c2.291,0.237,3.296,1.887,3.659,2.99L104.38,10.756z"/>
	<path clip-path="url(#SVGID_2_)" fill="#FFFFFF" d="M111.019,4.706l-0.921,4.606c0.816-0.544,1.851-0.861,3.087-0.613
		c1.111,0.222,1.886,0.823,2.263,1.459c0.577,0.937,0.413,1.854,0.209,2.876l-1.107,5.54l-2.114-0.422l0.983-4.932
		c0.127-0.814,0.165-1.011,0.112-1.302c-0.035-0.193-0.18-1.062-1.363-1.297c-1.381-0.276-2.248,0.706-2.496,1.197
		c-0.128,0.273-0.156,0.416-0.357,1.421l-0.823,4.124l-2.152-0.432l2.528-12.657L111.019,4.706z"/>
	<path clip-path="url(#SVGID_2_)" fill="#FFFFFF" d="M120.46,20.599c-2.72-0.852-3.912-3.409-3.075-6.078
		c0.835-2.668,3.286-4.008,5.885-3.192c2.425,0.759,3.969,3.102,3.08,6.002C125.496,20.052,123.094,21.425,120.46,20.599
		 M122.661,13.207c-1.308-0.41-2.577,0.341-3.08,1.946c-0.563,1.797,0.225,3.135,1.48,3.527c1.518,0.477,2.699-0.608,3.101-2.074
		C124.581,15.148,124.126,13.666,122.661,13.207"/>
	<path clip-path="url(#SVGID_2_)" fill="#FFFFFF" d="M130.123,24.204c-2.616-1.136-3.529-3.804-2.417-6.369
		c1.114-2.564,3.692-3.638,6.19-2.554c2.33,1.012,3.62,3.505,2.429,6.295C135.189,24.192,132.654,25.303,130.123,24.204
		 M133.094,17.084c-1.257-0.546-2.601,0.067-3.27,1.609c-0.75,1.728-0.107,3.141,1.1,3.666c1.458,0.632,2.749-0.322,3.304-1.735
		C134.798,19.219,134.501,17.696,133.094,17.084"/>
	
		<rect x="133.378" y="20.3" transform="matrix(0.4664 -0.8846 0.8846 0.4664 55.6769 135.1164)" clip-path="url(#SVGID_2_)" fill="#FFFFFF" width="12.918" height="2.214"/>
	<path clip-path="url(#SVGID_2_)" fill="#FFFFFF" d="M154.965,34.535c-0.378,0.247-1.067,0.678-2.033,0.933
		c-1.36,0.335-3.079,0.257-4.793-0.963c-2.789-1.981-3.467-5.54-0.963-9.059c2.545-3.577,6.222-3.858,8.905-1.948
		c3.281,2.333,2.263,5.404,1.98,6.303l-2.338-0.877c0.107-0.215,0.337-0.726,0.354-1.318c0.01-0.487-0.147-1.498-1.235-2.272
		c-1.714-1.219-3.914-0.651-5.515,1.6c-1.707,2.399-1.384,4.627,0.271,5.806c0.983,0.699,1.919,0.646,2.743,0.402
		c0.672-0.218,1.081-0.511,1.325-0.696L154.965,34.535z"/>
	<path clip-path="url(#SVGID_2_)" fill="#FFFFFF" d="M161.268,32.818l-0.849,0.982c0.518-0.181,1.681-0.602,3.194,0.777
		l-1.471,1.703c-0.372-0.298-1.006-0.822-1.853-0.877c-1.172-0.07-1.794,0.624-2.788,1.772l-2.211,2.561l-1.605-1.387l5.977-6.919
		L161.268,32.818z"/>
	<path clip-path="url(#SVGID_2_)" fill="#FFFFFF" d="M165.642,46.861c-1.879,0.262-3.478-0.213-4.79-1.538
		c-1.685-1.704-2.228-4.409,0.167-6.774c2.183-2.161,4.807-1.978,6.619-0.146c1.698,1.716,1.379,3.447,1.312,3.771
		c-0.228,1.279-1.242,2.515-1.879,3.17l-4.758-4.81c-0.847,1.198-0.802,2.414,0.215,3.44c1.053,1.066,2.103,0.878,2.567,0.804
		L165.642,46.861z M166.518,42.496c0.872-1.146,0.604-2.117-0.076-2.807c-0.823-0.832-1.869-0.929-2.935-0.235L166.518,42.496z"/>
	<path clip-path="url(#SVGID_2_)" fill="#FFFFFF" d="M180.3,47.702l-10.063,8.077l-1.362-1.695l0.685-0.551
		c-1.065-0.012-1.895-0.518-2.489-1.261c-1.361-1.696-1.271-4.182,1.082-6.07c2.123-1.704,4.896-1.96,6.531,0.078
		c0.561,0.699,0.898,1.528,0.733,2.552l3.522-2.827L180.3,47.702z M173.656,49.587c0.181-0.565,0.107-1.21-0.349-1.78
		c-0.928-1.155-2.414-0.876-3.542,0.029c-0.128,0.102-2.254,1.832-0.916,3.501c0.71,0.884,2.006,1.154,3.534-0.096
		C172.828,50.861,173.438,50.279,173.656,49.587"/>
	<path clip-path="url(#SVGID_2_)" fill="#FFFFFF" d="M180.23,54.238l-7.534,5.174l-1.232-1.794L179,52.444L180.23,54.238z
		 M183.229,52.179l-1.823,1.251l-1.232-1.792l1.824-1.253L183.229,52.179z"/>
	<path clip-path="url(#SVGID_2_)" fill="#FFFFFF" d="M181.636,59.378l-3.522,2.16c-0.965,0.592-1.385,0.852-0.84,1.74
		c0.171,0.279,0.329,0.504,0.572,0.721l-1.576,0.966c-0.438-0.504-0.698-0.858-0.954-1.279c-0.241-0.391-1.043-1.698-0.313-2.641
		c0.237-0.314,0.735-0.622,1.515-1.099l3.973-2.438l-0.698-1.137l1.341-0.821l0.697,1.138l2.758-1.692l1.146,1.87l-2.757,1.692
		l1.022,1.667l-1.34,0.82L181.636,59.378z"/>
	<path clip-path="url(#SVGID_2_)" fill="#FFFFFF" d="M15.494,185.744c-0.434,0.125-1.219,0.332-2.217,0.29
		c-1.397-0.083-3.016-0.666-4.291-2.339c-2.074-2.718-1.67-6.315,1.761-8.934c3.488-2.661,7.082-1.84,9.078,0.777
		c2.44,3.195,0.562,5.828,0.026,6.604l-1.972-1.529c0.166-0.175,0.537-0.596,0.729-1.156c0.154-0.461,0.301-1.473-0.508-2.532
		c-1.276-1.672-3.543-1.781-5.738-0.106c-2.341,1.785-2.69,4.008-1.46,5.621c0.732,0.96,1.642,1.187,2.501,1.196
		c0.706-0.009,1.184-0.166,1.471-0.271L15.494,185.744z"/>
	<path clip-path="url(#SVGID_2_)" fill="#FFFFFF" d="M16.947,192.863c-1.975-2.058-1.79-4.874,0.227-6.812
		c2.018-1.939,4.812-1.936,6.699,0.029c1.764,1.831,1.992,4.63-0.185,6.748C21.632,194.804,18.862,194.853,16.947,192.863
		 M22.438,187.436c-0.951-0.989-2.426-0.94-3.639,0.224c-1.358,1.306-1.313,2.859-0.4,3.809c1.104,1.146,2.663,0.764,3.72-0.326
		C23.188,190.063,23.502,188.543,22.438,187.436"/>
	
		<rect x="20.896" y="192.412" transform="matrix(0.6626 -0.749 0.749 0.6626 -135.7184 85.7887)" clip-path="url(#SVGID_2_)" fill="#FFFFFF" width="12.91" height="2.212"/>
	
		<rect x="24.424" y="195.381" transform="matrix(0.6246 -0.781 0.781 0.6246 -141.8569 97.8806)" clip-path="url(#SVGID_2_)" fill="#FFFFFF" width="12.907" height="2.212"/>
	<path clip-path="url(#SVGID_2_)" fill="#FFFFFF" d="M38.366,207.175c-1.786,0.631-3.45,0.487-5.002-0.549
		c-1.992-1.332-3.064-3.874-1.194-6.672c1.706-2.556,4.314-2.903,6.46-1.469c2.008,1.341,2.041,3.101,2.039,3.43
		c0.035,1.299-0.712,2.715-1.205,3.484l-5.627-3.761c-0.59,1.346-0.302,2.526,0.899,3.33c1.247,0.833,2.237,0.438,2.679,0.271
		L38.366,207.175z M38.352,202.72c0.625-1.298,0.169-2.195-0.637-2.735c-0.973-0.65-2.019-0.535-2.923,0.356L38.352,202.72z"/>
	<path clip-path="url(#SVGID_2_)" fill="#FFFFFF" d="M51.059,205.771l-3.376,6.691c-0.831,1.607-1.161,2.262-2.012,2.691
		c-0.762,0.373-2.095,0.5-4.022-0.471c-2.905-1.466-2.843-3.01-2.462-4.458l2.154,1.087c-0.091,0.549-0.019,1.259,1.156,1.854
		c0.996,0.501,1.633,0.332,1.945,0.161c0.498-0.259,0.738-0.732,1.24-1.729c-0.623,0.177-1.717,0.24-2.894-0.355
		c-1.927-0.969-2.883-3.092-1.574-5.687c1.53-3.036,4.205-2.938,5.706-2.18c1.469,0.74,1.686,1.853,1.766,2.263l0.43-0.848
		L51.059,205.771z M46.383,205.295c-0.995-0.501-2.345-0.344-3.136,1.225c-0.715,1.419-0.222,2.591,0.938,3.176
		c1.044,0.526,2.28,0.434,3.053-1.062C47.921,207.32,47.706,205.963,46.383,205.295"/>
	<path clip-path="url(#SVGID_2_)" fill="#FFFFFF" d="M58.786,216.176c-1.579,1.05-3.227,1.316-4.983,0.689
		c-2.259-0.803-3.92-3.006-2.791-6.178c1.032-2.896,3.478-3.869,5.906-3.002c2.274,0.809,2.737,2.508,2.817,2.828
		c0.351,1.252-0.028,2.806-0.318,3.673l-6.375-2.272c-0.245,1.448,0.323,2.524,1.686,3.011c1.413,0.503,2.275-0.121,2.662-0.393
		L58.786,216.176z M57.683,211.86c0.29-1.411-0.372-2.172-1.285-2.496c-1.103-0.394-2.089-0.024-2.748,1.061L57.683,211.86z"/>
	<path clip-path="url(#SVGID_2_)" fill="#FFFFFF" d="M77.489,218.287c-0.227,0.39-0.651,1.084-1.402,1.743
		c-1.067,0.905-2.641,1.602-4.719,1.275c-3.378-0.528-5.574-3.411-4.904-7.675c0.681-4.336,3.848-6.229,7.1-5.718
		c3.976,0.626,4.435,3.827,4.586,4.756l-2.484,0.258c0-0.239-0.022-0.799-0.271-1.338c-0.208-0.44-0.801-1.272-2.119-1.479
		c-2.078-0.326-3.792,1.163-4.221,3.891c-0.457,2.911,0.826,4.759,2.831,5.075c1.192,0.187,2.008-0.279,2.636-0.866
		c0.503-0.494,0.74-0.939,0.875-1.213L77.489,218.287z"/>
	<path clip-path="url(#SVGID_2_)" fill="#FFFFFF" d="M81.795,212.884l-0.076,1.295c0.302-0.458,0.968-1.501,3.008-1.325
		l-0.131,2.244c-0.475-0.009-1.298-0.038-2.004,0.433c-0.972,0.657-1.045,1.587-1.134,3.103l-0.198,3.377l-2.117-0.124l0.535-9.127
		L81.795,212.884z"/>
	<path clip-path="url(#SVGID_2_)" fill="#FFFFFF" d="M94.416,220.066c-1.113,1.533-2.563,2.357-4.428,2.384
		c-2.396,0.033-4.718-1.451-4.766-4.814c-0.045-3.071,1.906-4.834,4.483-4.871c2.413-0.033,3.438,1.396,3.624,1.667
		c0.765,1.05,0.951,2.638,0.983,3.551l-6.764,0.097c0.276,1.44,1.185,2.25,2.627,2.229c1.498-0.021,2.09-0.907,2.359-1.295
		L94.416,220.066z M91.878,216.409c-0.223-1.424-1.105-1.904-2.074-1.891c-1.171,0.018-1.965,0.704-2.203,1.949L91.878,216.409z"/>
	<path clip-path="url(#SVGID_2_)" fill="#FFFFFF" d="M103.782,208.423l1.102,12.871l-2.172,0.185l-0.073-0.875
		c-0.605,0.878-1.489,1.284-2.438,1.366c-2.169,0.184-4.185-1.277-4.442-4.284c-0.231-2.719,1.102-5.163,3.708-5.388
		c0.895-0.074,1.772,0.106,2.529,0.813l-0.384-4.503L103.782,208.423z M101.645,214.996c-0.37-0.465-0.946-0.764-1.676-0.701
		c-1.478,0.127-2.075,1.519-1.951,2.957c0.014,0.166,0.265,2.898,2.398,2.718c1.13-0.099,2.08-1.023,1.895-2.99
		C102.241,216.397,102.098,215.563,101.645,214.996"/>
	<path clip-path="url(#SVGID_2_)" fill="#FFFFFF" d="M108.021,207.934l0.315,2.189l-2.153,0.309l-0.313-2.188L108.021,207.934z
		 M108.54,211.535l1.302,9.047l-2.152,0.309l-1.303-9.047L108.54,211.535z"/>
	<path clip-path="url(#SVGID_2_)" fill="#FFFFFF" d="M113.524,212.272l0.751,4.063c0.206,1.114,0.297,1.6,1.32,1.411
		c0.325-0.06,0.591-0.128,0.88-0.274l0.336,1.815c-0.628,0.227-1.053,0.343-1.537,0.433c-0.449,0.082-1.96,0.363-2.575-0.657
		c-0.21-0.334-0.317-0.91-0.483-1.806l-0.849-4.584l-1.312,0.242l-0.286-1.547l1.312-0.242l-0.588-3.183l2.155-0.399l0.588,3.183
		l1.925-0.354l0.286,1.545L113.524,212.272z"/>
	<polygon clip-path="url(#SVGID_2_)" fill="#FFFFFF" points="175.944,167.063 178.939,138.977 156.7,156.39 170.453,154.281 	"/>
	<polygon clip-path="url(#SVGID_2_)" fill="#FFFFFF" points="10.808,55.335 8.346,83.474 30.249,65.64 16.54,68.011 	"/>
</g>
</svg>
