<?xml version="1.0" encoding="utf-8"?>
<!-- Generator: Adobe Illustrator 16.0.4, SVG Export Plug-In . SVG Version: 6.00 Build 0)  -->
<!DOCTYPE svg PUBLIC "-//W3C//DTD SVG 1.1//EN" "http://www.w3.org/Graphics/SVG/1.1/DTD/svg11.dtd">
<svg version="1.1" id="Layer_1" xmlns="http://www.w3.org/2000/svg" xmlns:xlink="http://www.w3.org/1999/xlink" x="0px" y="0px"
	 width="420.507px" height="189.01px" viewBox="0 0 420.507 189.01" enable-background="new 0 0 420.507 189.01"
	 xml:space="preserve">
<g>
	<path fill="#FFFFFF" d="M158.417,113.331h8.825l-4.355-14.457L158.417,113.331z M142.074,157.779h-7.836v7.952h8.126
		c1.162-0.057,2.38-0.115,3.367-1.218c0.638-0.64,1.045-1.626,1.045-2.673C146.777,158.01,143.294,157.836,142.074,157.779
		 M145.674,145.762c0-3.367-2.787-3.484-3.948-3.543h-7.431v6.967h7.14C142.656,149.186,145.674,149.186,145.674,145.762
		 M35.723,96.783h-4.875v22.001h4.934c1.858-0.115,3.658-0.174,5.458-1.914c1.974-1.858,3.077-5.341,3.077-9.173
		c0-2.38-0.406-4.355-1.044-6.038C41.529,97.016,38.277,96.901,35.723,96.783 M33.75,159.695h8.823L38.22,145.24L33.75,159.695z
		 M80.351,95.739h-5.34v9.579h5.4c2.147,0,6.269-0.116,6.269-4.761C86.68,95.854,82.615,95.739,80.351,95.739 M93.136,60.926
		c0-1.974-0.174-3.773-0.754-5.399c-1.973-5.689-6.967-5.863-8.128-5.863c-4.644,0-9.056,3.192-9.056,11.668
		c0,7.14,2.903,11.437,9.056,11.437C89.479,72.769,93.136,68.646,93.136,60.926 M122.221,66.963h8.824l-4.353-14.455L122.221,66.963
		z M256.233,142.395c-4.644,0-9.057,3.191-9.057,11.669c0,7.139,2.903,11.435,9.057,11.435c5.225,0,8.883-4.121,8.883-11.841
		c0-1.975-0.175-3.774-0.757-5.399C262.388,142.569,257.394,142.395,256.233,142.395 M315.041,119.542
		c-3.134-3.776-3.946-4.877-6.676-8.707c-1.394,1.043-3.018,2.319-3.018,4.815c0,2.208,1.507,5.168,5.225,5.168
		C312.543,120.818,314.054,120.064,315.041,119.542 M315.502,96.144c0-0.115,0-2.379-2.841-2.379c-1.567,0-2.612,0.696-2.612,2.264
		c0,1.393,1.045,2.786,1.915,3.948C313.358,99.165,315.502,98.061,315.502,96.144 M340.279,144.776c0,1.972,2.089,2.494,5.632,3.134
		c9.115,1.568,18.17,3.192,18.17,13.353c0,4.295-1.801,7.313-3.657,9.229c-5.166,5.282-13.41,5.282-15.674,5.282
		c-3.076,0-6.328-0.29-9.521-1.218c-6.502-1.858-9.521-5.515-11.378-7.78l9.928-6.385c1.16,1.8,2.146,3.308,5.688,4.47
		c1.684,0.581,3.773,0.929,5.747,0.929c1.046,0,6.154-0.115,6.154-3.077c0-0.291,0-1.8-2.266-2.554
		c-1.451-0.523-8.998-1.857-10.681-2.263c-3.772-0.988-11.147-3.31-11.147-11.961c0-1.801,0.408-3.657,1.162-5.282
		c2.671-6.037,9.579-8.418,16.952-8.418c4.702,0,8.997,0.93,12.364,2.613c3.077,1.51,4.588,3.133,6.037,4.646l-8.127,6.789
		c-0.637-0.811-1.335-1.74-3.134-2.669c-2.379-1.163-5.516-1.509-7.604-1.509C342.717,142.105,340.279,142.685,340.279,144.776
		 M332.631,128.133c-1.566,0.173-3.134,0.347-4.703,0.347c-4.529,0-5.863-1.102-7.315-2.438c-1.741,1.046-4.991,3.021-10.912,3.021
		c-4.528,0-8.476-1.102-11.844-4.588c-2.611-2.671-3.425-5.281-3.425-8.647c0-4.354,1.51-6.677,3.717-8.827
		c1.856-1.856,3.366-2.669,5.803-3.772c-1.044-1.452-2.727-3.716-2.727-7.547c0-1.973,0.694-8.882,11.553-8.882
		c1.276,0,6.268,0,9.287,3.135c1.22,1.278,2.205,3.077,2.205,5.921c0,2.729-0.927,5.109-3.191,7.315
		c-1.742,1.742-3.309,2.438-4.878,3.134c2.614,3.193,3.02,3.66,4.936,5.807c0.872-2.207,1.047-2.729,1.451-5.11l8.768,3.253
		c-1.919,5.747-2.439,6.733-4.007,9.229c1.103,0.466,2.032,0.932,3.483,0.932c0.581,0,1.22-0.06,1.8-0.174V128.133z M294.374,133.57
		l9.23,15.5c2.265,4.239,2.902,5.457,4.992,10.044c-0.346-4.007-0.406-4.876-0.521-9.463V133.57h12.132v40.986h-13.933
		l-8.302-14.165c-2.379-4.063-3.077-5.342-5.688-10.798c0.289,3.716,0.349,4.645,0.404,8.359v16.604h-12.073V133.57H294.374z
		 M258.5,98.41c0,1.973,2.089,2.494,5.631,3.135c9.115,1.568,18.169,3.192,18.169,13.352c0,4.297-1.799,7.315-3.658,9.229
		c-5.165,5.284-13.408,5.284-15.673,5.284c-3.076,0-6.328-0.291-9.521-1.22c-6.5-1.859-9.521-5.515-11.377-7.777l9.927-6.386
		c1.16,1.8,2.146,3.308,5.688,4.469c1.685,0.581,3.774,0.927,5.747,0.927c1.046,0,6.155-0.113,6.155-3.076
		c0-0.29,0-1.799-2.265-2.554c-1.452-0.523-8.998-1.858-10.683-2.263c-3.772-0.987-11.146-3.311-11.146-11.96
		c0-1.798,0.407-3.656,1.161-5.283c2.671-6.037,9.579-8.417,16.95-8.417c4.703,0,9,0.929,12.366,2.613
		c3.077,1.509,4.587,3.134,6.037,4.645l-8.126,6.791c-0.638-0.812-1.334-1.741-3.136-2.67c-2.38-1.16-5.515-1.509-7.604-1.509
		C260.936,95.739,258.5,96.319,258.5,98.41 M256.233,132.062c16.198,0,21.944,11.842,21.944,21.596
		c0,10.392-6.095,22.233-22.176,22.233c-16.777,0-21.827-12.423-21.827-21.771C234.174,142.395,241.429,132.062,256.233,132.062
		 M237.659,128.19h-12.365v-23.685c0.057-3.02,0.116-3.774,0.348-7.257c-0.696,3.077-0.813,3.656-1.626,6.618l-6.792,24.324h-9.637
		l-6.327-23.047c-0.872-3.309-0.93-3.368-1.917-7.662c0.174,2.555,0.232,3.193,0.232,5.514v25.195H187.27V87.206h18.519l5.05,18.924
		c0.928,4.064,1.102,4.993,1.684,8.708c0.753-5.05,0.986-6.095,1.915-10.042l4.644-17.59h18.577V128.19z M233.795,69.334
		c-0.058,3.309-0.115,6.734-2.958,9.638c-2.324,2.321-4.937,2.728-7.607,3.191v-5.108c3.483-1.103,3.542-3.309,3.6-5.166h-3.6
		V60.976h10.565V69.334z M196.934,52.043c0,1.975,2.089,2.495,5.631,3.135c9.114,1.567,18.17,3.193,18.17,13.353
		c0,4.295-1.799,7.314-3.656,9.23c-5.167,5.282-13.411,5.282-15.674,5.282c-3.077,0-6.329-0.291-9.521-1.219
		c-6.501-1.858-9.52-5.515-11.379-7.78l9.928-6.385c1.16,1.799,2.148,3.308,5.69,4.47c1.684,0.58,3.773,0.928,5.746,0.928
		c1.045,0,6.155-0.115,6.155-3.076c0-0.291,0-1.8-2.265-2.555c-1.452-0.523-8.998-1.857-10.683-2.264
		c-3.773-0.987-11.145-3.31-11.145-11.959c0-1.799,0.407-3.657,1.161-5.283c2.67-6.038,9.578-8.417,16.952-8.417
		c4.702,0,8.997,0.929,12.364,2.613c3.077,1.509,4.587,3.133,6.038,4.644l-8.128,6.792c-0.638-0.812-1.334-1.74-3.134-2.671
		c-2.38-1.159-5.515-1.508-7.604-1.508C199.372,49.373,196.934,49.954,196.934,52.043 M179.925,81.825h-28.794V40.781h12.945v30.71
		h15.849V81.825z M149.448,81.825h-13.934l-1.799-5.689h-14.281l-1.799,5.689h-13.933l15.675-40.985h14.744L149.448,81.825z
		 M106.199,60.926c0,10.392-6.096,22.234-22.177,22.234c-16.777,0-21.827-12.423-21.827-21.769c0-11.728,7.255-22.061,22.059-22.061
		C100.451,39.33,106.199,51.173,106.199,60.926 M62.008,87.146h20.434c3.889,0,7.605,0.233,10.101,1.278
		c5.457,2.323,7.083,7.895,7.083,11.842c0,1.567-0.173,5.226-3.135,8.245c-1.625,1.741-3.367,2.379-5.282,3.135l9.985,16.544H86.796
		l-7.954-14.456h-3.832v14.456H62.008V87.146z M60.977,174.556H47.043l-1.799-5.691H30.962l-1.799,5.691H15.231l15.674-40.986H45.65
		L60.977,174.556z M31.776,87.206c9.171,0.116,15.093,0.174,19.912,4.702c4.238,3.947,5.688,9.812,5.688,15.615
		c0,8.652-3.251,16.837-11.495,19.565c-3.308,1.103-6.966,1.103-10.972,1.103H17.843V87.206H31.776z M59.235,51.812l-11.611,3.25
		c-0.289-1.277-0.58-2.67-1.857-3.948c-1.219-1.219-3.308-2.147-6.037-2.147c-3.077,0-5.225,1.162-6.502,2.379
		c-3.193,2.961-3.193,7.838-3.193,9.696c0,2.438,0.175,6.385,3.077,9.346c2.555,2.67,5.573,2.729,6.966,2.729
		c1.162,0,4.122-0.115,6.155-2.206c1.103-1.161,1.277-2.264,1.566-3.541h-7.604v-8.243h18.809v22.639h-9.696v-2.844
		C47.45,80.315,43.909,82.869,37,82.869c-3.076,0-5.631-0.58-7.72-1.451c-3.89-1.567-12.423-7.083-12.423-19.854
		c0-11.785,7.605-22.408,21.885-22.408c6.154,0,12.481,2.148,16.545,6.154C57.725,47.69,58.538,49.896,59.235,51.812 M62.602,133.57
		h18.519l5.05,18.926c0.929,4.062,1.103,4.991,1.683,8.707c0.755-5.05,0.988-6.096,1.917-10.043l4.644-17.59h18.578v40.986h-12.366
		V150.87c0.058-3.018,0.117-3.772,0.348-7.256c-0.697,3.077-0.812,3.656-1.625,6.618l-6.793,24.324h-9.636l-6.327-23.047
		c-0.871-3.31-0.929-3.368-1.916-7.663c0.173,2.553,0.232,3.193,0.232,5.514v25.196H62.602V133.57z M118.55,111.181v8.128h21.188
		v8.881h-34.192V87.206h32.451v8.998H118.55v6.095h18.171v8.882H118.55z M121.35,133.57h24.266c2.554,0.116,7.315,0.292,10.391,3.31
		c1.858,1.742,2.786,4.47,2.786,7.083c0,3.019-1.276,5.572-2.902,7.197c-1.104,1.104-2.148,1.567-3.483,2.207
		c1.683,0.464,3.193,0.871,4.818,2.496c2.323,2.264,2.729,4.935,2.729,6.967c0,3.076-0.93,6.27-3.02,8.359
		c-3.076,3.135-7.314,3.251-10.506,3.367H121.35V133.57z M166.165,133.57h13.003v40.986h-13.003V133.57z M171.712,128.19
		l-1.799-5.689h-14.281l-1.799,5.689h-13.933l15.674-40.984h14.745l15.326,40.984H171.712z M180.619,133.512h33.729v10.158h-10.392
		v30.886h-12.945V143.67h-10.392V133.512z M216.423,133.57h13.005v40.986h-13.005V133.57z M420.867,0H0v189.172h420.867V0z"/>
	<text transform="matrix(1 0 0 1 16.8813 29.2676)"><tspan x="0" y="0" fill="#95B33D" font-family="'HelveticaNeue-Bold'" font-size="17.6631" letter-spacing="-1">T</tspan><tspan x="8.849" y="0" fill="#95B33D" font-family="'HelveticaNeue-Bold'" font-size="17.6631">ake the ﬁrst step </tspan></text>
	<text transform="matrix(1 0 0 1 172.6025 29.2676)" fill="#95B33D" font-family="'HelveticaNeue-Bold'" font-size="17.6631">to achieving your</text>
</g>
</svg>
